<svg xmlns="http://www.w3.org/2000/svg" xmlns:xlink="http://www.w3.org/1999/xlink" style="margin:auto;background:#1e212d;display:block;z-index:1;position:relative" width="1366" height="629" preserveAspectRatio="xMidYMid" viewBox="0 0 1440 667">
<g transform="translate(683,314.5) scale(1,1) translate(-683,-314.5)"><g transform="translate(-100 618.5740046947375) rotate(0)">
  <animateTransform attributeName="transform" type="translate" keyTimes="0;1" values="-100 618.5740046947375;1366 618.5740046947375" dur="66.66666666666667s" repeatCount="indefinite" begin="-0.43810326753483214s"></animateTransform>
  <path d="M84.717,33.597c0.791-2.503,1.186-5.138,1.186-7.773C85.903,11.594,74.308,0,60.079,0 c-9.881,0-18.445,5.534-22.793,13.702c-1.581-0.527-3.426-0.791-5.138-0.791c-9.486,0-17.128,7.642-17.128,17.128 c0,1.186,0.132,2.372,0.395,3.426C6.719,34.783,0,42.424,0,51.515C0,61.66,8.169,69.829,18.314,69.829h63.373 C91.831,69.829,100,61.66,100,51.515C99.868,42.556,93.281,35.046,84.717,33.597z" fill="#faeece" transform="scale(0.44)"></path>
</g><g transform="translate(-100 376.372781426496) rotate(0)">
  <animateTransform attributeName="transform" type="translate" keyTimes="0;1" values="-100 376.372781426496;1366 376.372781426496" dur="66.66666666666667s" repeatCount="indefinite" begin="-27.08653006717006s"></animateTransform>
  <path d="M84.717,33.597c0.791-2.503,1.186-5.138,1.186-7.773C85.903,11.594,74.308,0,60.079,0 c-9.881,0-18.445,5.534-22.793,13.702c-1.581-0.527-3.426-0.791-5.138-0.791c-9.486,0-17.128,7.642-17.128,17.128 c0,1.186,0.132,2.372,0.395,3.426C6.719,34.783,0,42.424,0,51.515C0,61.66,8.169,69.829,18.314,69.829h63.373 C91.831,69.829,100,61.66,100,51.515C99.868,42.556,93.281,35.046,84.717,33.597z" fill="#faeece" transform="scale(0.44)"></path>
</g><g transform="translate(-100 17.007618848026915) rotate(0)">
  <animateTransform attributeName="transform" type="translate" keyTimes="0;1" values="-100 17.007618848026915;1366 17.007618848026915" dur="66.66666666666667s" repeatCount="indefinite" begin="-9.83580896675543s"></animateTransform>
  <path d="M84.717,33.597c0.791-2.503,1.186-5.138,1.186-7.773C85.903,11.594,74.308,0,60.079,0 c-9.881,0-18.445,5.534-22.793,13.702c-1.581-0.527-3.426-0.791-5.138-0.791c-9.486,0-17.128,7.642-17.128,17.128 c0,1.186,0.132,2.372,0.395,3.426C6.719,34.783,0,42.424,0,51.515C0,61.66,8.169,69.829,18.314,69.829h63.373 C91.831,69.829,100,61.66,100,51.515C99.868,42.556,93.281,35.046,84.717,33.597z" fill="#faeece" transform="scale(0.44)"></path>
</g><g transform="translate(-100 133.79352643864925) rotate(0)">
  <animateTransform attributeName="transform" type="translate" keyTimes="0;1" values="-100 133.79352643864925;1366 133.79352643864925" dur="66.66666666666667s" repeatCount="indefinite" begin="-18.803736849914337s"></animateTransform>
  <path d="M84.717,33.597c0.791-2.503,1.186-5.138,1.186-7.773C85.903,11.594,74.308,0,60.079,0 c-9.881,0-18.445,5.534-22.793,13.702c-1.581-0.527-3.426-0.791-5.138-0.791c-9.486,0-17.128,7.642-17.128,17.128 c0,1.186,0.132,2.372,0.395,3.426C6.719,34.783,0,42.424,0,51.515C0,61.66,8.169,69.829,18.314,69.829h63.373 C91.831,69.829,100,61.66,100,51.515C99.868,42.556,93.281,35.046,84.717,33.597z" fill="#faeece" transform="scale(0.44)"></path>
</g><g transform="translate(-100 563.3786651503966) rotate(0)">
  <animateTransform attributeName="transform" type="translate" keyTimes="0;1" values="-100 563.3786651503966;1366 563.3786651503966" dur="66.66666666666667s" repeatCount="indefinite" begin="-64.44344474063716s"></animateTransform>
  <path d="M84.717,33.597c0.791-2.503,1.186-5.138,1.186-7.773C85.903,11.594,74.308,0,60.079,0 c-9.881,0-18.445,5.534-22.793,13.702c-1.581-0.527-3.426-0.791-5.138-0.791c-9.486,0-17.128,7.642-17.128,17.128 c0,1.186,0.132,2.372,0.395,3.426C6.719,34.783,0,42.424,0,51.515C0,61.66,8.169,69.829,18.314,69.829h63.373 C91.831,69.829,100,61.66,100,51.515C99.868,42.556,93.281,35.046,84.717,33.597z" fill="#faeece" transform="scale(0.44)"></path>
</g><g transform="translate(-100 606.9810784739855) rotate(0)">
  <animateTransform attributeName="transform" type="translate" keyTimes="0;1" values="-100 606.9810784739855;1366 606.9810784739855" dur="66.66666666666667s" repeatCount="indefinite" begin="-44.105030598262786s"></animateTransform>
  <path d="M84.717,33.597c0.791-2.503,1.186-5.138,1.186-7.773C85.903,11.594,74.308,0,60.079,0 c-9.881,0-18.445,5.534-22.793,13.702c-1.581-0.527-3.426-0.791-5.138-0.791c-9.486,0-17.128,7.642-17.128,17.128 c0,1.186,0.132,2.372,0.395,3.426C6.719,34.783,0,42.424,0,51.515C0,61.66,8.169,69.829,18.314,69.829h63.373 C91.831,69.829,100,61.66,100,51.515C99.868,42.556,93.281,35.046,84.717,33.597z" fill="#faeece" transform="scale(0.44)"></path>
</g><g transform="translate(-100 528.033305322952) rotate(0)">
  <animateTransform attributeName="transform" type="translate" keyTimes="0;1" values="-100 528.033305322952;1366 528.033305322952" dur="66.66666666666667s" repeatCount="indefinite" begin="-33.51605926387371s"></animateTransform>
  <path d="M84.717,33.597c0.791-2.503,1.186-5.138,1.186-7.773C85.903,11.594,74.308,0,60.079,0 c-9.881,0-18.445,5.534-22.793,13.702c-1.581-0.527-3.426-0.791-5.138-0.791c-9.486,0-17.128,7.642-17.128,17.128 c0,1.186,0.132,2.372,0.395,3.426C6.719,34.783,0,42.424,0,51.515C0,61.66,8.169,69.829,18.314,69.829h63.373 C91.831,69.829,100,61.66,100,51.515C99.868,42.556,93.281,35.046,84.717,33.597z" fill="#faeece" transform="scale(0.44)"></path>
</g><g transform="translate(-100 457.0111354464754) rotate(0)">
  <animateTransform attributeName="transform" type="translate" keyTimes="0;1" values="-100 457.0111354464754;1366 457.0111354464754" dur="66.66666666666667s" repeatCount="indefinite" begin="-56.698756906344705s"></animateTransform>
  <path d="M84.717,33.597c0.791-2.503,1.186-5.138,1.186-7.773C85.903,11.594,74.308,0,60.079,0 c-9.881,0-18.445,5.534-22.793,13.702c-1.581-0.527-3.426-0.791-5.138-0.791c-9.486,0-17.128,7.642-17.128,17.128 c0,1.186,0.132,2.372,0.395,3.426C6.719,34.783,0,42.424,0,51.515C0,61.66,8.169,69.829,18.314,69.829h63.373 C91.831,69.829,100,61.66,100,51.515C99.868,42.556,93.281,35.046,84.717,33.597z" fill="#faeece" transform="scale(0.44)"></path>
</g><g transform="translate(-100 543.485754490835) rotate(0)">
  <animateTransform attributeName="transform" type="translate" keyTimes="0;1" values="-100 543.485754490835;1366 543.485754490835" dur="66.66666666666667s" repeatCount="indefinite" begin="-36.23874916351315s"></animateTransform>
  <path d="M84.717,33.597c0.791-2.503,1.186-5.138,1.186-7.773C85.903,11.594,74.308,0,60.079,0 c-9.881,0-18.445,5.534-22.793,13.702c-1.581-0.527-3.426-0.791-5.138-0.791c-9.486,0-17.128,7.642-17.128,17.128 c0,1.186,0.132,2.372,0.395,3.426C6.719,34.783,0,42.424,0,51.515C0,61.66,8.169,69.829,18.314,69.829h63.373 C91.831,69.829,100,61.66,100,51.515C99.868,42.556,93.281,35.046,84.717,33.597z" fill="#faeece" transform="scale(0.44)"></path>
</g><g transform="translate(-100 74.65344548189988) rotate(0)">
  <animateTransform attributeName="transform" type="translate" keyTimes="0;1" values="-100 74.65344548189988;1366 74.65344548189988" dur="66.66666666666667s" repeatCount="indefinite" begin="-34.6916137819228s"></animateTransform>
  <path d="M84.717,33.597c0.791-2.503,1.186-5.138,1.186-7.773C85.903,11.594,74.308,0,60.079,0 c-9.881,0-18.445,5.534-22.793,13.702c-1.581-0.527-3.426-0.791-5.138-0.791c-9.486,0-17.128,7.642-17.128,17.128 c0,1.186,0.132,2.372,0.395,3.426C6.719,34.783,0,42.424,0,51.515C0,61.66,8.169,69.829,18.314,69.829h63.373 C91.831,69.829,100,61.66,100,51.515C99.868,42.556,93.281,35.046,84.717,33.597z" fill="#faeece" transform="scale(0.44)"></path>
</g><g transform="translate(-100 210.69944477509975) rotate(0)">
  <animateTransform attributeName="transform" type="translate" keyTimes="0;1" values="-100 210.69944477509975;1366 210.69944477509975" dur="66.66666666666667s" repeatCount="indefinite" begin="-26.203266187180144s"></animateTransform>
  <path d="M84.717,33.597c0.791-2.503,1.186-5.138,1.186-7.773C85.903,11.594,74.308,0,60.079,0 c-9.881,0-18.445,5.534-22.793,13.702c-1.581-0.527-3.426-0.791-5.138-0.791c-9.486,0-17.128,7.642-17.128,17.128 c0,1.186,0.132,2.372,0.395,3.426C6.719,34.783,0,42.424,0,51.515C0,61.66,8.169,69.829,18.314,69.829h63.373 C91.831,69.829,100,61.66,100,51.515C99.868,42.556,93.281,35.046,84.717,33.597z" fill="#faeece" transform="scale(0.44)"></path>
</g><g transform="translate(-100 529.3186368512133) rotate(0)">
  <animateTransform attributeName="transform" type="translate" keyTimes="0;1" values="-100 529.3186368512133;1366 529.3186368512133" dur="33.333333333333336s" repeatCount="indefinite" begin="-10.917748501889468s"></animateTransform>
  <path d="M84.717,33.597c0.791-2.503,1.186-5.138,1.186-7.773C85.903,11.594,74.308,0,60.079,0 c-9.881,0-18.445,5.534-22.793,13.702c-1.581-0.527-3.426-0.791-5.138-0.791c-9.486,0-17.128,7.642-17.128,17.128 c0,1.186,0.132,2.372,0.395,3.426C6.719,34.783,0,42.424,0,51.515C0,61.66,8.169,69.829,18.314,69.829h63.373 C91.831,69.829,100,61.66,100,51.515C99.868,42.556,93.281,35.046,84.717,33.597z" fill="#eabf9f" transform="scale(0.46)"></path>
</g><g transform="translate(-100 353.64936929845044) rotate(0)">
  <animateTransform attributeName="transform" type="translate" keyTimes="0;1" values="-100 353.64936929845044;1366 353.64936929845044" dur="33.333333333333336s" repeatCount="indefinite" begin="-47.34033403974802s"></animateTransform>
  <path d="M84.717,33.597c0.791-2.503,1.186-5.138,1.186-7.773C85.903,11.594,74.308,0,60.079,0 c-9.881,0-18.445,5.534-22.793,13.702c-1.581-0.527-3.426-0.791-5.138-0.791c-9.486,0-17.128,7.642-17.128,17.128 c0,1.186,0.132,2.372,0.395,3.426C6.719,34.783,0,42.424,0,51.515C0,61.66,8.169,69.829,18.314,69.829h63.373 C91.831,69.829,100,61.66,100,51.515C99.868,42.556,93.281,35.046,84.717,33.597z" fill="#eabf9f" transform="scale(0.46)"></path>
</g><g transform="translate(-100 423.56119547541266) rotate(0)">
  <animateTransform attributeName="transform" type="translate" keyTimes="0;1" values="-100 423.56119547541266;1366 423.56119547541266" dur="33.333333333333336s" repeatCount="indefinite" begin="-53.080135895376365s"></animateTransform>
  <path d="M84.717,33.597c0.791-2.503,1.186-5.138,1.186-7.773C85.903,11.594,74.308,0,60.079,0 c-9.881,0-18.445,5.534-22.793,13.702c-1.581-0.527-3.426-0.791-5.138-0.791c-9.486,0-17.128,7.642-17.128,17.128 c0,1.186,0.132,2.372,0.395,3.426C6.719,34.783,0,42.424,0,51.515C0,61.66,8.169,69.829,18.314,69.829h63.373 C91.831,69.829,100,61.66,100,51.515C99.868,42.556,93.281,35.046,84.717,33.597z" fill="#eabf9f" transform="scale(0.46)"></path>
</g><g transform="translate(-100 211.65960017942103) rotate(0)">
  <animateTransform attributeName="transform" type="translate" keyTimes="0;1" values="-100 211.65960017942103;1366 211.65960017942103" dur="33.333333333333336s" repeatCount="indefinite" begin="-58.385057300330395s"></animateTransform>
  <path d="M84.717,33.597c0.791-2.503,1.186-5.138,1.186-7.773C85.903,11.594,74.308,0,60.079,0 c-9.881,0-18.445,5.534-22.793,13.702c-1.581-0.527-3.426-0.791-5.138-0.791c-9.486,0-17.128,7.642-17.128,17.128 c0,1.186,0.132,2.372,0.395,3.426C6.719,34.783,0,42.424,0,51.515C0,61.66,8.169,69.829,18.314,69.829h63.373 C91.831,69.829,100,61.66,100,51.515C99.868,42.556,93.281,35.046,84.717,33.597z" fill="#eabf9f" transform="scale(0.46)"></path>
</g><g transform="translate(-100 66.74905952494156) rotate(0)">
  <animateTransform attributeName="transform" type="translate" keyTimes="0;1" values="-100 66.74905952494156;1366 66.74905952494156" dur="33.333333333333336s" repeatCount="indefinite" begin="-37.840262382713355s"></animateTransform>
  <path d="M84.717,33.597c0.791-2.503,1.186-5.138,1.186-7.773C85.903,11.594,74.308,0,60.079,0 c-9.881,0-18.445,5.534-22.793,13.702c-1.581-0.527-3.426-0.791-5.138-0.791c-9.486,0-17.128,7.642-17.128,17.128 c0,1.186,0.132,2.372,0.395,3.426C6.719,34.783,0,42.424,0,51.515C0,61.66,8.169,69.829,18.314,69.829h63.373 C91.831,69.829,100,61.66,100,51.515C99.868,42.556,93.281,35.046,84.717,33.597z" fill="#eabf9f" transform="scale(0.46)"></path>
</g><g transform="translate(-100 247.8141953556826) rotate(0)">
  <animateTransform attributeName="transform" type="translate" keyTimes="0;1" values="-100 247.8141953556826;1366 247.8141953556826" dur="33.333333333333336s" repeatCount="indefinite" begin="-7.920093102246921s"></animateTransform>
  <path d="M84.717,33.597c0.791-2.503,1.186-5.138,1.186-7.773C85.903,11.594,74.308,0,60.079,0 c-9.881,0-18.445,5.534-22.793,13.702c-1.581-0.527-3.426-0.791-5.138-0.791c-9.486,0-17.128,7.642-17.128,17.128 c0,1.186,0.132,2.372,0.395,3.426C6.719,34.783,0,42.424,0,51.515C0,61.66,8.169,69.829,18.314,69.829h63.373 C91.831,69.829,100,61.66,100,51.515C99.868,42.556,93.281,35.046,84.717,33.597z" fill="#eabf9f" transform="scale(0.46)"></path>
</g><g transform="translate(-100 85.48374635868467) rotate(0)">
  <animateTransform attributeName="transform" type="translate" keyTimes="0;1" values="-100 85.48374635868467;1366 85.48374635868467" dur="33.333333333333336s" repeatCount="indefinite" begin="-62.13008730537686s"></animateTransform>
  <path d="M84.717,33.597c0.791-2.503,1.186-5.138,1.186-7.773C85.903,11.594,74.308,0,60.079,0 c-9.881,0-18.445,5.534-22.793,13.702c-1.581-0.527-3.426-0.791-5.138-0.791c-9.486,0-17.128,7.642-17.128,17.128 c0,1.186,0.132,2.372,0.395,3.426C6.719,34.783,0,42.424,0,51.515C0,61.66,8.169,69.829,18.314,69.829h63.373 C91.831,69.829,100,61.66,100,51.515C99.868,42.556,93.281,35.046,84.717,33.597z" fill="#eabf9f" transform="scale(0.46)"></path>
</g><g transform="translate(-100 538.6939957772278) rotate(0)">
  <animateTransform attributeName="transform" type="translate" keyTimes="0;1" values="-100 538.6939957772278;1366 538.6939957772278" dur="33.333333333333336s" repeatCount="indefinite" begin="-34.672858609834734s"></animateTransform>
  <path d="M84.717,33.597c0.791-2.503,1.186-5.138,1.186-7.773C85.903,11.594,74.308,0,60.079,0 c-9.881,0-18.445,5.534-22.793,13.702c-1.581-0.527-3.426-0.791-5.138-0.791c-9.486,0-17.128,7.642-17.128,17.128 c0,1.186,0.132,2.372,0.395,3.426C6.719,34.783,0,42.424,0,51.515C0,61.66,8.169,69.829,18.314,69.829h63.373 C91.831,69.829,100,61.66,100,51.515C99.868,42.556,93.281,35.046,84.717,33.597z" fill="#eabf9f" transform="scale(0.46)"></path>
</g><g transform="translate(-100 343.0104210792827) rotate(0)">
  <animateTransform attributeName="transform" type="translate" keyTimes="0;1" values="-100 343.0104210792827;1366 343.0104210792827" dur="33.333333333333336s" repeatCount="indefinite" begin="-32.943162570879075s"></animateTransform>
  <path d="M84.717,33.597c0.791-2.503,1.186-5.138,1.186-7.773C85.903,11.594,74.308,0,60.079,0 c-9.881,0-18.445,5.534-22.793,13.702c-1.581-0.527-3.426-0.791-5.138-0.791c-9.486,0-17.128,7.642-17.128,17.128 c0,1.186,0.132,2.372,0.395,3.426C6.719,34.783,0,42.424,0,51.515C0,61.66,8.169,69.829,18.314,69.829h63.373 C91.831,69.829,100,61.66,100,51.515C99.868,42.556,93.281,35.046,84.717,33.597z" fill="#eabf9f" transform="scale(0.46)"></path>
</g><g transform="translate(-100 321.10296191558524) rotate(0)">
  <animateTransform attributeName="transform" type="translate" keyTimes="0;1" values="-100 321.10296191558524;1366 321.10296191558524" dur="33.333333333333336s" repeatCount="indefinite" begin="-30.111094703825316s"></animateTransform>
  <path d="M84.717,33.597c0.791-2.503,1.186-5.138,1.186-7.773C85.903,11.594,74.308,0,60.079,0 c-9.881,0-18.445,5.534-22.793,13.702c-1.581-0.527-3.426-0.791-5.138-0.791c-9.486,0-17.128,7.642-17.128,17.128 c0,1.186,0.132,2.372,0.395,3.426C6.719,34.783,0,42.424,0,51.515C0,61.66,8.169,69.829,18.314,69.829h63.373 C91.831,69.829,100,61.66,100,51.515C99.868,42.556,93.281,35.046,84.717,33.597z" fill="#eabf9f" transform="scale(0.46)"></path>
</g><g transform="translate(-100 622.9909516522094) rotate(0)">
  <animateTransform attributeName="transform" type="translate" keyTimes="0;1" values="-100 622.9909516522094;1366 622.9909516522094" dur="33.333333333333336s" repeatCount="indefinite" begin="-57.51379464213439s"></animateTransform>
  <path d="M84.717,33.597c0.791-2.503,1.186-5.138,1.186-7.773C85.903,11.594,74.308,0,60.079,0 c-9.881,0-18.445,5.534-22.793,13.702c-1.581-0.527-3.426-0.791-5.138-0.791c-9.486,0-17.128,7.642-17.128,17.128 c0,1.186,0.132,2.372,0.395,3.426C6.719,34.783,0,42.424,0,51.515C0,61.66,8.169,69.829,18.314,69.829h63.373 C91.831,69.829,100,61.66,100,51.515C99.868,42.556,93.281,35.046,84.717,33.597z" fill="#eabf9f" transform="scale(0.46)"></path>
</g><g transform="translate(-100 36.03559595838996) rotate(0)">
  <animateTransform attributeName="transform" type="translate" keyTimes="0;1" values="-100 36.03559595838996;1366 36.03559595838996" dur="22.222222222222225s" repeatCount="indefinite" begin="-42.34439898666768s"></animateTransform>
  <path d="M84.717,33.597c0.791-2.503,1.186-5.138,1.186-7.773C85.903,11.594,74.308,0,60.079,0 c-9.881,0-18.445,5.534-22.793,13.702c-1.581-0.527-3.426-0.791-5.138-0.791c-9.486,0-17.128,7.642-17.128,17.128 c0,1.186,0.132,2.372,0.395,3.426C6.719,34.783,0,42.424,0,51.515C0,61.66,8.169,69.829,18.314,69.829h63.373 C91.831,69.829,100,61.66,100,51.515C99.868,42.556,93.281,35.046,84.717,33.597z" fill="rgba(234, 191, 159, 0.7901411290322581)" transform="scale(0.48)"></path>
</g><g transform="translate(-100 35.970248457631605) rotate(0)">
  <animateTransform attributeName="transform" type="translate" keyTimes="0;1" values="-100 35.970248457631605;1366 35.970248457631605" dur="22.222222222222225s" repeatCount="indefinite" begin="-24.43111631678434s"></animateTransform>
  <path d="M84.717,33.597c0.791-2.503,1.186-5.138,1.186-7.773C85.903,11.594,74.308,0,60.079,0 c-9.881,0-18.445,5.534-22.793,13.702c-1.581-0.527-3.426-0.791-5.138-0.791c-9.486,0-17.128,7.642-17.128,17.128 c0,1.186,0.132,2.372,0.395,3.426C6.719,34.783,0,42.424,0,51.515C0,61.66,8.169,69.829,18.314,69.829h63.373 C91.831,69.829,100,61.66,100,51.515C99.868,42.556,93.281,35.046,84.717,33.597z" fill="rgba(234, 191, 159, 0.7901411290322581)" transform="scale(0.48)"></path>
</g><g transform="translate(-100 112.59683787387425) rotate(0)">
  <animateTransform attributeName="transform" type="translate" keyTimes="0;1" values="-100 112.59683787387425;1366 112.59683787387425" dur="22.222222222222225s" repeatCount="indefinite" begin="-45.45966824948013s"></animateTransform>
  <path d="M84.717,33.597c0.791-2.503,1.186-5.138,1.186-7.773C85.903,11.594,74.308,0,60.079,0 c-9.881,0-18.445,5.534-22.793,13.702c-1.581-0.527-3.426-0.791-5.138-0.791c-9.486,0-17.128,7.642-17.128,17.128 c0,1.186,0.132,2.372,0.395,3.426C6.719,34.783,0,42.424,0,51.515C0,61.66,8.169,69.829,18.314,69.829h63.373 C91.831,69.829,100,61.66,100,51.515C99.868,42.556,93.281,35.046,84.717,33.597z" fill="rgba(234, 191, 159, 0.7901411290322581)" transform="scale(0.48)"></path>
</g><g transform="translate(-100 52.93478561696448) rotate(0)">
  <animateTransform attributeName="transform" type="translate" keyTimes="0;1" values="-100 52.93478561696448;1366 52.93478561696448" dur="22.222222222222225s" repeatCount="indefinite" begin="-18.920924053121375s"></animateTransform>
  <path d="M84.717,33.597c0.791-2.503,1.186-5.138,1.186-7.773C85.903,11.594,74.308,0,60.079,0 c-9.881,0-18.445,5.534-22.793,13.702c-1.581-0.527-3.426-0.791-5.138-0.791c-9.486,0-17.128,7.642-17.128,17.128 c0,1.186,0.132,2.372,0.395,3.426C6.719,34.783,0,42.424,0,51.515C0,61.66,8.169,69.829,18.314,69.829h63.373 C91.831,69.829,100,61.66,100,51.515C99.868,42.556,93.281,35.046,84.717,33.597z" fill="rgba(234, 191, 159, 0.7901411290322581)" transform="scale(0.48)"></path>
</g><g transform="translate(-100 202.69531322228374) rotate(0)">
  <animateTransform attributeName="transform" type="translate" keyTimes="0;1" values="-100 202.69531322228374;1366 202.69531322228374" dur="22.222222222222225s" repeatCount="indefinite" begin="-60.965478962298576s"></animateTransform>
  <path d="M84.717,33.597c0.791-2.503,1.186-5.138,1.186-7.773C85.903,11.594,74.308,0,60.079,0 c-9.881,0-18.445,5.534-22.793,13.702c-1.581-0.527-3.426-0.791-5.138-0.791c-9.486,0-17.128,7.642-17.128,17.128 c0,1.186,0.132,2.372,0.395,3.426C6.719,34.783,0,42.424,0,51.515C0,61.66,8.169,69.829,18.314,69.829h63.373 C91.831,69.829,100,61.66,100,51.515C99.868,42.556,93.281,35.046,84.717,33.597z" fill="rgba(234, 191, 159, 0.7901411290322581)" transform="scale(0.48)"></path>
</g><g transform="translate(-100 192.34696394898992) rotate(0)">
  <animateTransform attributeName="transform" type="translate" keyTimes="0;1" values="-100 192.34696394898992;1366 192.34696394898992" dur="22.222222222222225s" repeatCount="indefinite" begin="-6.765314937019544s"></animateTransform>
  <path d="M84.717,33.597c0.791-2.503,1.186-5.138,1.186-7.773C85.903,11.594,74.308,0,60.079,0 c-9.881,0-18.445,5.534-22.793,13.702c-1.581-0.527-3.426-0.791-5.138-0.791c-9.486,0-17.128,7.642-17.128,17.128 c0,1.186,0.132,2.372,0.395,3.426C6.719,34.783,0,42.424,0,51.515C0,61.66,8.169,69.829,18.314,69.829h63.373 C91.831,69.829,100,61.66,100,51.515C99.868,42.556,93.281,35.046,84.717,33.597z" fill="rgba(234, 191, 159, 0.7901411290322581)" transform="scale(0.48)"></path>
</g><g transform="translate(-100 195.83033715058278) rotate(0)">
  <animateTransform attributeName="transform" type="translate" keyTimes="0;1" values="-100 195.83033715058278;1366 195.83033715058278" dur="22.222222222222225s" repeatCount="indefinite" begin="-6.701993255668316s"></animateTransform>
  <path d="M84.717,33.597c0.791-2.503,1.186-5.138,1.186-7.773C85.903,11.594,74.308,0,60.079,0 c-9.881,0-18.445,5.534-22.793,13.702c-1.581-0.527-3.426-0.791-5.138-0.791c-9.486,0-17.128,7.642-17.128,17.128 c0,1.186,0.132,2.372,0.395,3.426C6.719,34.783,0,42.424,0,51.515C0,61.66,8.169,69.829,18.314,69.829h63.373 C91.831,69.829,100,61.66,100,51.515C99.868,42.556,93.281,35.046,84.717,33.597z" fill="rgba(234, 191, 159, 0.7901411290322581)" transform="scale(0.48)"></path>
</g><g transform="translate(-100 271.6214172570938) rotate(0)">
  <animateTransform attributeName="transform" type="translate" keyTimes="0;1" values="-100 271.6214172570938;1366 271.6214172570938" dur="22.222222222222225s" repeatCount="indefinite" begin="-62.65015820691164s"></animateTransform>
  <path d="M84.717,33.597c0.791-2.503,1.186-5.138,1.186-7.773C85.903,11.594,74.308,0,60.079,0 c-9.881,0-18.445,5.534-22.793,13.702c-1.581-0.527-3.426-0.791-5.138-0.791c-9.486,0-17.128,7.642-17.128,17.128 c0,1.186,0.132,2.372,0.395,3.426C6.719,34.783,0,42.424,0,51.515C0,61.66,8.169,69.829,18.314,69.829h63.373 C91.831,69.829,100,61.66,100,51.515C99.868,42.556,93.281,35.046,84.717,33.597z" fill="rgba(234, 191, 159, 0.7901411290322581)" transform="scale(0.48)"></path>
</g><g transform="translate(-100 605.2944779721391) rotate(0)">
  <animateTransform attributeName="transform" type="translate" keyTimes="0;1" values="-100 605.2944779721391;1366 605.2944779721391" dur="22.222222222222225s" repeatCount="indefinite" begin="-47.09200540287079s"></animateTransform>
  <path d="M84.717,33.597c0.791-2.503,1.186-5.138,1.186-7.773C85.903,11.594,74.308,0,60.079,0 c-9.881,0-18.445,5.534-22.793,13.702c-1.581-0.527-3.426-0.791-5.138-0.791c-9.486,0-17.128,7.642-17.128,17.128 c0,1.186,0.132,2.372,0.395,3.426C6.719,34.783,0,42.424,0,51.515C0,61.66,8.169,69.829,18.314,69.829h63.373 C91.831,69.829,100,61.66,100,51.515C99.868,42.556,93.281,35.046,84.717,33.597z" fill="rgba(234, 191, 159, 0.7901411290322581)" transform="scale(0.48)"></path>
</g><g transform="translate(-100 547.9186544905481) rotate(0)">
  <animateTransform attributeName="transform" type="translate" keyTimes="0;1" values="-100 547.9186544905481;1366 547.9186544905481" dur="22.222222222222225s" repeatCount="indefinite" begin="-23.490894659785173s"></animateTransform>
  <path d="M84.717,33.597c0.791-2.503,1.186-5.138,1.186-7.773C85.903,11.594,74.308,0,60.079,0 c-9.881,0-18.445,5.534-22.793,13.702c-1.581-0.527-3.426-0.791-5.138-0.791c-9.486,0-17.128,7.642-17.128,17.128 c0,1.186,0.132,2.372,0.395,3.426C6.719,34.783,0,42.424,0,51.515C0,61.66,8.169,69.829,18.314,69.829h63.373 C91.831,69.829,100,61.66,100,51.515C99.868,42.556,93.281,35.046,84.717,33.597z" fill="rgba(234, 191, 159, 0.7901411290322581)" transform="scale(0.48)"></path>
</g><g transform="translate(-100 364.81314139082355) rotate(0)">
  <animateTransform attributeName="transform" type="translate" keyTimes="0;1" values="-100 364.81314139082355;1366 364.81314139082355" dur="22.222222222222225s" repeatCount="indefinite" begin="-28.35034420124186s"></animateTransform>
  <path d="M84.717,33.597c0.791-2.503,1.186-5.138,1.186-7.773C85.903,11.594,74.308,0,60.079,0 c-9.881,0-18.445,5.534-22.793,13.702c-1.581-0.527-3.426-0.791-5.138-0.791c-9.486,0-17.128,7.642-17.128,17.128 c0,1.186,0.132,2.372,0.395,3.426C6.719,34.783,0,42.424,0,51.515C0,61.66,8.169,69.829,18.314,69.829h63.373 C91.831,69.829,100,61.66,100,51.515C99.868,42.556,93.281,35.046,84.717,33.597z" fill="rgba(234, 191, 159, 0.7901411290322581)" transform="scale(0.48)"></path>
</g><g transform="translate(-100 576.1377846031605) rotate(0)">
  <animateTransform attributeName="transform" type="translate" keyTimes="0;1" values="-100 576.1377846031605;1366 576.1377846031605" dur="16.666666666666668s" repeatCount="indefinite" begin="-13.324357856241111s"></animateTransform>
  <path d="M84.717,33.597c0.791-2.503,1.186-5.138,1.186-7.773C85.903,11.594,74.308,0,60.079,0 c-9.881,0-18.445,5.534-22.793,13.702c-1.581-0.527-3.426-0.791-5.138-0.791c-9.486,0-17.128,7.642-17.128,17.128 c0,1.186,0.132,2.372,0.395,3.426C6.719,34.783,0,42.424,0,51.515C0,61.66,8.169,69.829,18.314,69.829h63.373 C91.831,69.829,100,61.66,100,51.515C99.868,42.556,93.281,35.046,84.717,33.597z" fill="rgba(250, 238, 206, 0.5385282258064517)" transform="scale(0.5)"></path>
</g><g transform="translate(-100 550.5261605900473) rotate(0)">
  <animateTransform attributeName="transform" type="translate" keyTimes="0;1" values="-100 550.5261605900473;1366 550.5261605900473" dur="16.666666666666668s" repeatCount="indefinite" begin="-1.1558768387961513s"></animateTransform>
  <path d="M84.717,33.597c0.791-2.503,1.186-5.138,1.186-7.773C85.903,11.594,74.308,0,60.079,0 c-9.881,0-18.445,5.534-22.793,13.702c-1.581-0.527-3.426-0.791-5.138-0.791c-9.486,0-17.128,7.642-17.128,17.128 c0,1.186,0.132,2.372,0.395,3.426C6.719,34.783,0,42.424,0,51.515C0,61.66,8.169,69.829,18.314,69.829h63.373 C91.831,69.829,100,61.66,100,51.515C99.868,42.556,93.281,35.046,84.717,33.597z" fill="rgba(250, 238, 206, 0.5385282258064517)" transform="scale(0.5)"></path>
</g><g transform="translate(-100 188.71604466531937) rotate(0)">
  <animateTransform attributeName="transform" type="translate" keyTimes="0;1" values="-100 188.71604466531937;1366 188.71604466531937" dur="16.666666666666668s" repeatCount="indefinite" begin="-65.24418390004853s"></animateTransform>
  <path d="M84.717,33.597c0.791-2.503,1.186-5.138,1.186-7.773C85.903,11.594,74.308,0,60.079,0 c-9.881,0-18.445,5.534-22.793,13.702c-1.581-0.527-3.426-0.791-5.138-0.791c-9.486,0-17.128,7.642-17.128,17.128 c0,1.186,0.132,2.372,0.395,3.426C6.719,34.783,0,42.424,0,51.515C0,61.66,8.169,69.829,18.314,69.829h63.373 C91.831,69.829,100,61.66,100,51.515C99.868,42.556,93.281,35.046,84.717,33.597z" fill="rgba(250, 238, 206, 0.5385282258064517)" transform="scale(0.5)"></path>
</g><g transform="translate(-100 445.0353384524738) rotate(0)">
  <animateTransform attributeName="transform" type="translate" keyTimes="0;1" values="-100 445.0353384524738;1366 445.0353384524738" dur="16.666666666666668s" repeatCount="indefinite" begin="-45.026028011674654s"></animateTransform>
  <path d="M84.717,33.597c0.791-2.503,1.186-5.138,1.186-7.773C85.903,11.594,74.308,0,60.079,0 c-9.881,0-18.445,5.534-22.793,13.702c-1.581-0.527-3.426-0.791-5.138-0.791c-9.486,0-17.128,7.642-17.128,17.128 c0,1.186,0.132,2.372,0.395,3.426C6.719,34.783,0,42.424,0,51.515C0,61.66,8.169,69.829,18.314,69.829h63.373 C91.831,69.829,100,61.66,100,51.515C99.868,42.556,93.281,35.046,84.717,33.597z" fill="rgba(250, 238, 206, 0.5385282258064517)" transform="scale(0.5)"></path>
</g><g transform="translate(-100 522.7374585590142) rotate(0)">
  <animateTransform attributeName="transform" type="translate" keyTimes="0;1" values="-100 522.7374585590142;1366 522.7374585590142" dur="16.666666666666668s" repeatCount="indefinite" begin="-9.660350530614847s"></animateTransform>
  <path d="M84.717,33.597c0.791-2.503,1.186-5.138,1.186-7.773C85.903,11.594,74.308,0,60.079,0 c-9.881,0-18.445,5.534-22.793,13.702c-1.581-0.527-3.426-0.791-5.138-0.791c-9.486,0-17.128,7.642-17.128,17.128 c0,1.186,0.132,2.372,0.395,3.426C6.719,34.783,0,42.424,0,51.515C0,61.66,8.169,69.829,18.314,69.829h63.373 C91.831,69.829,100,61.66,100,51.515C99.868,42.556,93.281,35.046,84.717,33.597z" fill="rgba(250, 238, 206, 0.5385282258064517)" transform="scale(0.5)"></path>
</g><g transform="translate(-100 127.62589499376281) rotate(0)">
  <animateTransform attributeName="transform" type="translate" keyTimes="0;1" values="-100 127.62589499376281;1366 127.62589499376281" dur="16.666666666666668s" repeatCount="indefinite" begin="-33.596739075240556s"></animateTransform>
  <path d="M84.717,33.597c0.791-2.503,1.186-5.138,1.186-7.773C85.903,11.594,74.308,0,60.079,0 c-9.881,0-18.445,5.534-22.793,13.702c-1.581-0.527-3.426-0.791-5.138-0.791c-9.486,0-17.128,7.642-17.128,17.128 c0,1.186,0.132,2.372,0.395,3.426C6.719,34.783,0,42.424,0,51.515C0,61.66,8.169,69.829,18.314,69.829h63.373 C91.831,69.829,100,61.66,100,51.515C99.868,42.556,93.281,35.046,84.717,33.597z" fill="rgba(250, 238, 206, 0.5385282258064517)" transform="scale(0.5)"></path>
</g><g transform="translate(-100 143.43377484496082) rotate(0)">
  <animateTransform attributeName="transform" type="translate" keyTimes="0;1" values="-100 143.43377484496082;1366 143.43377484496082" dur="16.666666666666668s" repeatCount="indefinite" begin="-31.653419856874695s"></animateTransform>
  <path d="M84.717,33.597c0.791-2.503,1.186-5.138,1.186-7.773C85.903,11.594,74.308,0,60.079,0 c-9.881,0-18.445,5.534-22.793,13.702c-1.581-0.527-3.426-0.791-5.138-0.791c-9.486,0-17.128,7.642-17.128,17.128 c0,1.186,0.132,2.372,0.395,3.426C6.719,34.783,0,42.424,0,51.515C0,61.66,8.169,69.829,18.314,69.829h63.373 C91.831,69.829,100,61.66,100,51.515C99.868,42.556,93.281,35.046,84.717,33.597z" fill="rgba(250, 238, 206, 0.5385282258064517)" transform="scale(0.5)"></path>
</g><g transform="translate(-100 386.9154901212302) rotate(0)">
  <animateTransform attributeName="transform" type="translate" keyTimes="0;1" values="-100 386.9154901212302;1366 386.9154901212302" dur="16.666666666666668s" repeatCount="indefinite" begin="-12.586866310727098s"></animateTransform>
  <path d="M84.717,33.597c0.791-2.503,1.186-5.138,1.186-7.773C85.903,11.594,74.308,0,60.079,0 c-9.881,0-18.445,5.534-22.793,13.702c-1.581-0.527-3.426-0.791-5.138-0.791c-9.486,0-17.128,7.642-17.128,17.128 c0,1.186,0.132,2.372,0.395,3.426C6.719,34.783,0,42.424,0,51.515C0,61.66,8.169,69.829,18.314,69.829h63.373 C91.831,69.829,100,61.66,100,51.515C99.868,42.556,93.281,35.046,84.717,33.597z" fill="rgba(250, 238, 206, 0.5385282258064517)" transform="scale(0.5)"></path>
</g><g transform="translate(-100 515.31205820379) rotate(0)">
  <animateTransform attributeName="transform" type="translate" keyTimes="0;1" values="-100 515.31205820379;1366 515.31205820379" dur="16.666666666666668s" repeatCount="indefinite" begin="-35.40957546637135s"></animateTransform>
  <path d="M84.717,33.597c0.791-2.503,1.186-5.138,1.186-7.773C85.903,11.594,74.308,0,60.079,0 c-9.881,0-18.445,5.534-22.793,13.702c-1.581-0.527-3.426-0.791-5.138-0.791c-9.486,0-17.128,7.642-17.128,17.128 c0,1.186,0.132,2.372,0.395,3.426C6.719,34.783,0,42.424,0,51.515C0,61.66,8.169,69.829,18.314,69.829h63.373 C91.831,69.829,100,61.66,100,51.515C99.868,42.556,93.281,35.046,84.717,33.597z" fill="rgba(250, 238, 206, 0.5385282258064517)" transform="scale(0.5)"></path>
</g><g transform="translate(-100 507.95259926413206) rotate(0)">
  <animateTransform attributeName="transform" type="translate" keyTimes="0;1" values="-100 507.95259926413206;1366 507.95259926413206" dur="16.666666666666668s" repeatCount="indefinite" begin="-53.12172917527263s"></animateTransform>
  <path d="M84.717,33.597c0.791-2.503,1.186-5.138,1.186-7.773C85.903,11.594,74.308,0,60.079,0 c-9.881,0-18.445,5.534-22.793,13.702c-1.581-0.527-3.426-0.791-5.138-0.791c-9.486,0-17.128,7.642-17.128,17.128 c0,1.186,0.132,2.372,0.395,3.426C6.719,34.783,0,42.424,0,51.515C0,61.66,8.169,69.829,18.314,69.829h63.373 C91.831,69.829,100,61.66,100,51.515C99.868,42.556,93.281,35.046,84.717,33.597z" fill="rgba(250, 238, 206, 0.5385282258064517)" transform="scale(0.5)"></path>
</g><g transform="translate(-100 365.5390795945382) rotate(0)">
  <animateTransform attributeName="transform" type="translate" keyTimes="0;1" values="-100 365.5390795945382;1366 365.5390795945382" dur="16.666666666666668s" repeatCount="indefinite" begin="-32.749542323517375s"></animateTransform>
  <path d="M84.717,33.597c0.791-2.503,1.186-5.138,1.186-7.773C85.903,11.594,74.308,0,60.079,0 c-9.881,0-18.445,5.534-22.793,13.702c-1.581-0.527-3.426-0.791-5.138-0.791c-9.486,0-17.128,7.642-17.128,17.128 c0,1.186,0.132,2.372,0.395,3.426C6.719,34.783,0,42.424,0,51.515C0,61.66,8.169,69.829,18.314,69.829h63.373 C91.831,69.829,100,61.66,100,51.515C99.868,42.556,93.281,35.046,84.717,33.597z" fill="rgba(250, 238, 206, 0.5385282258064517)" transform="scale(0.5)"></path>
</g><g transform="translate(-100 176.15294477553707) rotate(0)">
  <animateTransform attributeName="transform" type="translate" keyTimes="0;1" values="-100 176.15294477553707;1366 176.15294477553707" dur="16.666666666666668s" repeatCount="indefinite" begin="-25.908223571301754s"></animateTransform>
  <path d="M84.717,33.597c0.791-2.503,1.186-5.138,1.186-7.773C85.903,11.594,74.308,0,60.079,0 c-9.881,0-18.445,5.534-22.793,13.702c-1.581-0.527-3.426-0.791-5.138-0.791c-9.486,0-17.128,7.642-17.128,17.128 c0,1.186,0.132,2.372,0.395,3.426C6.719,34.783,0,42.424,0,51.515C0,61.66,8.169,69.829,18.314,69.829h63.373 C91.831,69.829,100,61.66,100,51.515C99.868,42.556,93.281,35.046,84.717,33.597z" fill="rgba(250, 238, 206, 0.5385282258064517)" transform="scale(0.5)"></path>
</g></g>
</svg>